<svg width="147" height="46" viewBox="0 0 147 46" fill="none" xmlns="http://www.w3.org/2000/svg">
<rect x="1.25" y="0.5" width="144.746" height="44.9322" rx="11.5" fill="white" stroke="#7D7D7D"/>
<path d="M33.4855 21.8183C33.4544 18.2268 36.3173 16.4795 36.4482 16.3982C34.8268 13.9433 32.3137 13.6079 31.4306 13.5811C29.3199 13.3505 27.2725 14.8927 26.1973 14.8927C25.1006 14.8927 23.4449 13.6034 21.6604 13.6413C19.364 13.6781 17.2157 15.0587 16.0375 17.2027C13.606 21.5743 15.4194 27.9985 17.7491 31.532C18.9144 33.2626 20.2761 35.1949 22.0585 35.1269C23.8022 35.0522 24.4535 33.9724 26.5578 33.9724C28.6428 33.9724 29.2544 35.1269 31.0722 35.0834C32.9436 35.0522 34.1218 33.3451 35.2464 31.5989C36.593 29.6154 37.1339 27.6619 37.1553 27.5616C37.1113 27.546 33.5209 26.123 33.4855 21.8183Z" fill="#212120"/>
<path d="M30.0539 11.2558C30.9918 10.0378 31.6335 8.38076 31.4553 6.69922C30.0979 6.76162 28.4003 7.67427 27.4228 8.8655C26.5579 9.91521 25.7853 11.6358 25.9849 13.2538C27.5097 13.3719 29.0753 12.4548 30.0539 11.2558Z" fill="#212120"/>
<path d="M58.7199 34.8775H56.283L54.9481 30.5215H50.3082L49.0366 34.8775H46.6641L51.261 20.0479H54.1004L58.7199 34.8775ZM54.5457 28.694L53.3385 24.8217C53.2108 24.4261 52.9715 23.4945 52.6185 22.028H52.5755C52.435 22.6587 52.2086 23.5903 51.8974 24.8217L50.7116 28.694H54.5457V28.694Z" fill="#212120"/>
<path d="M70.5411 29.3995C70.5411 31.2181 70.0679 32.6555 69.1215 33.7108C68.2738 34.6502 67.2211 35.1193 65.9645 35.1193C64.6082 35.1193 63.6339 34.6134 63.0405 33.6016H62.9975V39.2346H60.7098V27.7046C60.7098 26.5612 60.6808 25.3879 60.625 24.1844H62.637L62.7647 25.8793H62.8076C63.5705 24.6022 64.7284 23.9648 66.2822 23.9648C67.4969 23.9648 68.5109 24.463 69.3221 25.4603C70.1355 26.4587 70.5411 27.7714 70.5411 29.3995ZM68.2105 29.4864C68.2105 28.4456 67.9851 27.5875 67.5323 26.9123C67.0376 26.208 66.3734 25.8559 65.5407 25.8559C64.9763 25.8559 64.4633 26.052 64.0051 26.4387C63.5459 26.8287 63.2454 27.3379 63.1048 27.9687C63.034 28.2628 62.9986 28.5035 62.9986 28.693V30.4759C62.9986 31.2537 63.2282 31.9101 63.6875 32.4461C64.1468 32.982 64.7434 33.2495 65.4774 33.2495C66.339 33.2495 67.0097 32.904 67.4894 32.2154C67.9701 31.5256 68.2105 30.6163 68.2105 29.4864Z" fill="#212120"/>
<path d="M82.3838 29.3995C82.3838 31.2181 81.9106 32.6555 80.9631 33.7108C80.1165 34.6502 79.0638 35.1193 77.8072 35.1193C76.4509 35.1193 75.4765 34.6134 74.8842 33.6016H74.8413V39.2346H72.5535V27.7046C72.5535 26.5612 72.5245 25.3879 72.4688 24.1844H74.4807L74.6084 25.8793H74.6514C75.4132 24.6022 76.5711 23.9648 78.1259 23.9648C79.3396 23.9648 80.3536 24.463 81.167 25.4603C81.9772 26.4587 82.3838 27.7714 82.3838 29.3995ZM80.0532 29.4864C80.0532 28.4456 79.8267 27.5875 79.3739 26.9123C78.8792 26.208 78.2171 25.8559 77.3834 25.8559C76.8179 25.8559 76.306 26.052 75.8468 26.4387C75.3875 26.8287 75.0881 27.3379 74.9475 27.9687C74.8778 28.2628 74.8413 28.5035 74.8413 28.693V30.4759C74.8413 31.2537 75.0709 31.9101 75.528 32.4461C75.9873 32.9809 76.5839 33.2495 77.3201 33.2495C78.1817 33.2495 78.8524 32.904 79.3321 32.2154C79.8128 31.5256 80.0532 30.6163 80.0532 29.4864Z" fill="#212120"/>
<path d="M95.6248 30.7183C95.6248 31.9797 95.2031 33.006 94.3564 33.7983C93.4261 34.6641 92.1309 35.0965 90.4666 35.0965C88.93 35.0965 87.6981 34.789 86.7656 34.1727L87.2957 32.1925C88.3001 32.8233 89.4021 33.1397 90.6029 33.1397C91.4646 33.1397 92.1352 32.9369 92.617 32.5335C93.0967 32.1301 93.336 31.5886 93.336 30.9133C93.336 30.3115 93.1385 29.8045 92.7426 29.3933C92.3487 28.9821 91.691 28.5999 90.7724 28.2467C88.2722 27.2783 87.0232 25.8598 87.0232 23.9944C87.0232 22.7753 87.461 21.7757 88.3377 20.9979C89.2111 20.219 90.3765 19.8301 91.8337 19.8301C93.1332 19.8301 94.2127 20.0652 95.0743 20.5343L94.5024 22.4711C93.6976 22.0164 92.7876 21.7891 91.7693 21.7891C90.9645 21.7891 90.3357 21.9952 89.885 22.4053C89.5041 22.7719 89.3131 23.2188 89.3131 23.7481C89.3131 24.3342 89.5309 24.819 89.9687 25.2001C90.3496 25.5522 91.0418 25.9333 92.0462 26.3445C93.2748 26.8582 94.1772 27.4588 94.7578 28.1475C95.3361 28.8339 95.6248 29.6931 95.6248 30.7183Z" fill="#212120"/>
<path d="M103.193 25.9669H100.671V31.1586C100.671 32.4791 101.115 33.1388 102.006 33.1388C102.415 33.1388 102.754 33.102 103.022 33.0285L103.086 34.8326C102.635 35.0076 102.041 35.0956 101.306 35.0956C100.403 35.0956 99.6968 34.8092 99.1871 34.2375C98.6795 33.6648 98.4242 32.7042 98.4242 31.3547V25.9647H96.9219V24.1817H98.4242V22.2238L100.671 21.5195V24.1817H103.193V25.9669Z" fill="#212120"/>
<path d="M114.57 29.4418C114.57 31.0855 114.117 32.4349 113.214 33.4902C112.266 34.5767 111.009 35.1183 109.441 35.1183C107.93 35.1183 106.727 34.5979 105.83 33.5571C104.933 32.5163 104.484 31.2025 104.484 29.619C104.484 27.962 104.946 26.6047 105.872 25.5494C106.796 24.493 108.043 23.9648 109.61 23.9648C111.121 23.9648 112.337 24.4852 113.254 25.5271C114.132 26.5379 114.57 27.8427 114.57 29.4418ZM112.196 29.5187C112.196 28.5325 111.994 27.6867 111.583 26.9814C111.103 26.1278 110.417 25.7021 109.529 25.7021C108.609 25.7021 107.911 26.1289 107.431 26.9814C107.02 27.6879 106.817 28.547 106.817 29.5633C106.817 30.5495 107.02 31.3953 107.431 32.0995C107.926 32.9531 108.617 33.3788 109.508 33.3788C110.382 33.3788 111.068 32.9442 111.562 32.0772C111.984 31.3585 112.196 30.5038 112.196 29.5187Z" fill="#212120"/>
<path d="M122.001 26.2737C121.775 26.2303 121.533 26.208 121.28 26.208C120.475 26.208 119.853 26.5234 119.415 27.1552C119.034 27.7123 118.843 28.4166 118.843 29.2668V34.8775H116.557L116.578 27.5519C116.578 26.3194 116.549 25.1973 116.492 24.1855H118.485L118.569 26.2314H118.632C118.873 25.5283 119.254 24.9622 119.776 24.5376C120.285 24.1554 120.836 23.9648 121.429 23.9648C121.641 23.9648 121.832 23.9804 122.001 24.0083V26.2737Z" fill="#212120"/>
<path d="M132.237 29.0246C132.237 29.4503 132.21 29.8091 132.153 30.1022H125.29C125.317 31.1586 125.648 31.9665 126.286 32.5237C126.864 33.0218 127.612 33.2714 128.531 33.2714C129.547 33.2714 130.474 33.1031 131.308 32.7655L131.666 34.4147C130.692 34.856 129.541 35.0755 128.214 35.0755C126.617 35.0755 125.364 34.5874 124.452 33.6124C123.542 32.6373 123.086 31.328 123.086 29.6854C123.086 28.073 123.51 26.7302 124.359 25.6593C125.247 24.516 126.448 23.9443 127.959 23.9443C129.443 23.9443 130.566 24.516 131.329 25.6593C131.933 26.5675 132.237 27.6908 132.237 29.0246ZM130.055 28.4084C130.07 27.7041 129.921 27.0957 129.611 26.582C129.215 25.9212 128.607 25.5913 127.788 25.5913C127.04 25.5913 126.432 25.9134 125.967 26.5597C125.586 27.0734 125.36 27.6896 125.29 28.4073H130.055V28.4084Z" fill="#212120"/>
<path d="M53.7901 10.9251C53.7901 12.2366 53.4113 13.2239 52.6548 13.887C51.9541 14.4988 50.9583 14.8052 49.6684 14.8052C49.0289 14.8052 48.4816 14.7762 48.0234 14.7183V7.55194C48.6211 7.45165 49.265 7.40039 49.9603 7.40039C51.189 7.40039 52.115 7.67786 52.7395 8.2328C53.4392 8.86018 53.7901 9.75723 53.7901 10.9251ZM52.6043 10.9574C52.6043 10.1071 52.3876 9.45524 51.9541 9.00059C51.5205 8.54705 50.8874 8.31972 50.0537 8.31972C49.6996 8.31972 49.398 8.34424 49.148 8.3955V13.8435C49.2864 13.8658 49.5397 13.8758 49.9077 13.8758C50.7683 13.8758 51.4325 13.6273 51.9004 13.1303C52.3683 12.6333 52.6043 11.909 52.6043 10.9574Z" fill="#212120"/>
<path d="M60.0793 12.0699C60.0793 12.8778 59.8572 13.5397 59.4129 14.059C58.9472 14.5927 58.3302 14.8591 57.5598 14.8591C56.8172 14.8591 56.226 14.6039 55.7849 14.0913C55.345 13.5798 55.125 12.9346 55.125 12.1568C55.125 11.3433 55.3514 10.6759 55.8064 10.1577C56.2614 9.63952 56.873 9.37988 57.6435 9.37988C58.386 9.37988 58.9826 9.63506 59.4344 10.1465C59.8636 10.6435 60.0793 11.2854 60.0793 12.0699ZM58.9129 12.1078C58.9129 11.623 58.812 11.2074 58.6114 10.8608C58.3753 10.4418 58.0394 10.2323 57.6027 10.2323C57.1509 10.2323 56.8076 10.4418 56.5715 10.8608C56.3697 11.2074 56.27 11.6297 56.27 12.1289C56.27 12.6137 56.3708 13.0293 56.5715 13.3759C56.8151 13.7949 57.1542 14.0044 57.592 14.0044C58.0212 14.0044 58.3581 13.7915 58.6006 13.3647C58.8088 13.0115 58.9129 12.5925 58.9129 12.1078Z" fill="#212120"/>
<path d="M68.5087 9.4873L66.9259 14.7403H65.8958L65.2402 12.4592C65.0738 11.8898 64.9386 11.3237 64.8335 10.7621H64.8131C64.7154 11.3393 64.5802 11.9043 64.4064 12.4592L63.71 14.7403H62.668L61.1797 9.4873H62.3354L62.9073 11.9845C63.0457 12.5751 63.1595 13.1379 63.2507 13.6705H63.2711C63.3548 13.2315 63.4932 12.6721 63.6885 11.9957L64.4064 9.48842H65.3228L66.0106 11.9422C66.1769 12.5406 66.3121 13.1167 66.4162 13.6716H66.4474C66.5235 13.1312 66.6384 12.5551 66.7907 11.9422L67.4045 9.48842H68.5087V9.4873Z" fill="#212120"/>
<path d="M74.3401 14.7402H73.2156V11.7315C73.2156 10.8044 72.8765 10.3409 72.1961 10.3409C71.8624 10.3409 71.5931 10.4679 71.3838 10.7231C71.1767 10.9783 71.0716 11.2791 71.0716 11.6234V14.7391H69.947V10.9883C69.947 10.5269 69.9331 10.0266 69.9062 9.48504H70.8945L70.9471 10.3063H70.9782C71.1091 10.0511 71.3044 9.84052 71.5609 9.67225C71.8656 9.47613 72.2069 9.37695 72.5803 9.37695C73.0524 9.37695 73.4452 9.53519 73.7574 9.85277C74.1459 10.2417 74.3401 10.8222 74.3401 11.5934V14.7402V14.7402Z" fill="#212120"/>
<path d="M77.436 14.7404H76.3125V7.07715H77.436V14.7404Z" fill="#212120"/>
<path d="M84.0559 12.0699C84.0559 12.8778 83.8337 13.5397 83.3895 14.059C82.9238 14.5927 82.3057 14.8591 81.5363 14.8591C80.7927 14.8591 80.2014 14.6039 79.7615 14.0913C79.3215 13.5798 79.1016 12.9346 79.1016 12.1568C79.1016 11.3433 79.328 10.6759 79.783 10.1577C80.2379 9.63952 80.8496 9.37988 81.619 9.37988C82.3626 9.37988 82.9581 9.63506 83.411 10.1465C83.8402 10.6435 84.0559 11.2854 84.0559 12.0699ZM82.8884 12.1078C82.8884 11.623 82.7875 11.2074 82.5869 10.8608C82.3519 10.4418 82.0149 10.2323 81.5792 10.2323C81.1264 10.2323 80.783 10.4418 80.548 10.8608C80.3463 11.2074 80.2465 11.6297 80.2465 12.1289C80.2465 12.6137 80.3474 13.0293 80.548 13.3759C80.7916 13.7949 81.1307 14.0044 81.5685 14.0044C81.9977 14.0044 82.3336 13.7915 82.5761 13.3647C82.7854 13.0115 82.8884 12.5925 82.8884 12.1078Z" fill="#212120"/>
<path d="M89.5043 14.7398H88.4946L88.4109 14.1347H88.3797C88.0342 14.6172 87.5417 14.8591 86.9021 14.8591C86.4246 14.8591 86.0383 14.6997 85.7475 14.3832C85.4836 14.0957 85.3516 13.738 85.3516 13.3135C85.3516 12.6716 85.6091 12.1824 86.1274 11.8437C86.6446 11.5049 87.3721 11.3389 88.3089 11.3467V11.2486C88.3089 10.5566 87.9591 10.2112 87.2584 10.2112C86.7594 10.2112 86.3195 10.3416 85.9396 10.6001L85.711 9.83342C86.181 9.53143 86.7616 9.37988 87.4462 9.37988C88.7682 9.37988 89.4314 10.1042 89.4314 11.5528V13.4873C89.4314 14.0122 89.456 14.43 89.5043 14.7398ZM88.3368 12.9346V12.1245C87.0964 12.1022 86.4761 12.4554 86.4761 13.1831C86.4761 13.4572 86.547 13.6623 86.6918 13.7993C86.8367 13.9364 87.0213 14.0044 87.2412 14.0044C87.488 14.0044 87.7187 13.923 87.9291 13.7614C88.1405 13.5987 88.2703 13.3926 88.3186 13.1396C88.3304 13.0828 88.3368 13.0137 88.3368 12.9346Z" fill="#212120"/>
<path d="M95.8913 14.7404H94.8933L94.8407 13.8968H94.8096C94.4909 14.5387 93.948 14.8596 93.185 14.8596C92.5755 14.8596 92.068 14.6111 91.6656 14.1141C91.2632 13.6171 91.0625 12.9719 91.0625 12.1797C91.0625 11.3294 91.2803 10.6408 91.7181 10.1148C92.142 9.6245 92.6614 9.37935 93.2794 9.37935C93.9587 9.37935 94.4341 9.6167 94.7045 10.0925H94.7259V7.07715H95.8516V13.3252C95.8516 13.8367 95.8644 14.308 95.8913 14.7404ZM94.7259 12.5251V11.6492C94.7259 11.4977 94.7152 11.3751 94.6948 11.2815C94.6315 11.0007 94.4952 10.7645 94.2881 10.5739C94.0789 10.3834 93.8267 10.2875 93.5359 10.2875C93.1163 10.2875 92.788 10.4602 92.5465 10.8068C92.3072 11.1534 92.186 11.5957 92.186 12.1362C92.186 12.6555 92.3008 13.0767 92.5315 13.401C92.7751 13.7464 93.1035 13.9191 93.5144 13.9191C93.8836 13.9191 94.1787 13.7754 94.4029 13.4868C94.6197 13.2204 94.7259 12.8995 94.7259 12.5251Z" fill="#212120"/>
<path d="M105.509 12.0699C105.509 12.8778 105.287 13.5397 104.843 14.059C104.377 14.5927 103.761 14.8591 102.989 14.8591C102.248 14.8591 101.657 14.6039 101.215 14.0913C100.775 13.5798 100.555 12.9346 100.555 12.1568C100.555 11.3433 100.781 10.6759 101.236 10.1577C101.691 9.63952 102.303 9.37988 103.074 9.37988C103.816 9.37988 104.413 9.63506 104.864 10.1465C105.293 10.6435 105.509 11.2854 105.509 12.0699ZM104.344 12.1078C104.344 11.623 104.243 11.2074 104.042 10.8608C103.805 10.4418 103.47 10.2323 103.032 10.2323C102.582 10.2323 102.238 10.4418 102.001 10.8608C101.799 11.2074 101.7 11.6297 101.7 12.1289C101.7 12.6137 101.801 13.0293 102.001 13.3759C102.245 13.7949 102.584 14.0044 103.022 14.0044C103.451 14.0044 103.789 13.7915 104.031 13.3647C104.239 13.0115 104.344 12.5925 104.344 12.1078Z" fill="#212120"/>
<path d="M111.558 14.7402H110.434V11.7315C110.434 10.8044 110.095 10.3409 109.414 10.3409C109.08 10.3409 108.811 10.4679 108.603 10.7231C108.394 10.9783 108.29 11.2791 108.29 11.6234V14.7391H107.165V10.9883C107.165 10.5269 107.152 10.0266 107.125 9.48504H108.112L108.165 10.3063H108.196C108.328 10.0511 108.523 9.84052 108.779 9.67225C109.084 9.47613 109.425 9.37695 109.799 9.37695C110.27 9.37695 110.663 9.53519 110.975 9.85277C111.365 10.2417 111.558 10.8222 111.558 11.5934V14.7402V14.7402Z" fill="#212120"/>
<path d="M119.128 10.3617H117.889V12.9135C117.889 13.5621 118.109 13.8863 118.545 13.8863C118.747 13.8863 118.914 13.8685 119.046 13.8317L119.075 14.7176C118.853 14.8045 118.561 14.848 118.202 14.848C117.757 14.848 117.412 14.7076 117.162 14.4268C116.911 14.146 116.786 13.6735 116.786 13.0105V10.3617H116.047V9.48694H116.786V8.52415L117.888 8.17871V9.48582H119.127V10.3617H119.128Z" fill="#212120"/>
<path d="M125.081 14.7404H123.955V11.754C123.955 10.8124 123.616 10.341 122.937 10.341C122.415 10.341 122.059 10.614 121.864 11.16C121.83 11.2748 121.811 11.4152 121.811 11.5801V14.7393H120.688V7.07715H121.811V10.243H121.832C122.187 9.66684 122.694 9.37935 123.352 9.37935C123.818 9.37935 124.203 9.53758 124.509 9.85517C124.89 10.2508 125.081 10.8391 125.081 11.6169V14.7404V14.7404Z" fill="#212120"/>
<path d="M131.216 11.8651C131.216 12.0746 131.201 12.2507 131.174 12.3944H127.801C127.816 12.9137 127.977 13.3093 128.29 13.5834C128.575 13.8286 128.943 13.9512 129.394 13.9512C129.893 13.9512 130.348 13.8687 130.758 13.7027L130.934 14.5139C130.454 14.7301 129.89 14.8382 129.236 14.8382C128.453 14.8382 127.836 14.5986 127.389 14.1194C126.941 13.6403 126.719 12.9973 126.719 12.1905C126.719 11.3982 126.926 10.7385 127.343 10.2126C127.779 9.65093 128.368 9.37012 129.112 9.37012C129.839 9.37012 130.392 9.65093 130.765 10.2126C131.067 10.6583 131.216 11.2099 131.216 11.8651ZM130.143 11.5631C130.151 11.2166 130.077 10.9179 129.925 10.6661C129.73 10.3418 129.433 10.1791 129.03 10.1791C128.663 10.1791 128.364 10.3374 128.135 10.6549C127.948 10.9079 127.838 11.2099 127.801 11.5631H130.143Z" fill="#212120"/>
</svg>
