<svg width="68" height="120" viewBox="0 0 68 120" fill="none" xmlns="http://www.w3.org/2000/svg">
<rect width="68" height="120" rx="24" fill="#F7F7F7"/>
<path fill-rule="evenodd" clip-rule="evenodd" d="M27.1862 62.2024C26.1653 62.2024 25.3359 61.3731 25.3359 60.3522C25.3359 59.3342 26.1653 58.5049 27.1862 58.5049C28.2071 58.5049 29.0364 59.3342 29.0364 60.3522C29.0364 61.3731 28.2071 62.2024 27.1862 62.2024ZM34.379 62.2024C33.3581 62.2024 32.5288 61.3731 32.5288 60.3522C32.5288 59.3342 33.3581 58.5049 34.379 58.5049C35.4 58.5049 36.2293 59.3342 36.2293 60.3522C36.2293 61.3731 35.4 62.2024 34.379 62.2024ZM39.7218 60.3522C39.7218 61.3731 40.5512 62.2024 41.5721 62.2024C42.5929 62.2024 43.4222 61.3731 43.4222 60.3522C43.4222 59.3342 42.5929 58.5049 41.5721 58.5049C40.5512 58.5049 39.7218 59.3342 39.7218 60.3522Z" fill="#0D0D0D"/>
<path fill-rule="evenodd" clip-rule="evenodd" d="M34.0291 44.167C24.8299 44.167 18.1641 51.6817 18.1641 60.0241C18.1641 62.688 18.9399 65.4297 20.3016 67.9352C20.5549 68.3491 20.5866 68.8708 20.4124 69.364L19.3516 72.9159C19.1141 73.7722 19.8424 74.4049 20.6499 74.1512L23.8482 73.2014C24.7191 72.9159 25.3999 73.2791 26.2074 73.7722C28.5191 75.1343 31.4007 75.8337 33.9974 75.8337C41.8507 75.8337 49.8307 69.7603 49.8307 59.9766C49.8307 51.539 43.0224 44.167 34.0291 44.167Z" stroke="#0D0D0D" stroke-width="2" stroke-linecap="round" stroke-linejoin="round"/>
</svg>
