<svg width="68" height="120" viewBox="0 0 68 120" fill="none" xmlns="http://www.w3.org/2000/svg">
<rect width="68" height="120" rx="24" fill="#1E1E1E"/>
<path d="M33.193 45.416H27.273C22.4042 45.416 19.3516 48.8629 19.3516 53.7428V66.9066C19.3516 71.7864 22.39 75.2334 27.273 75.2334H41.2443C46.1289 75.2334 49.1673 71.7864 49.1673 66.9066V60.5289" stroke="white" stroke-width="2" stroke-linecap="round" stroke-linejoin="round"/>
<path fill-rule="evenodd" clip-rule="evenodd" d="M28.9746 58.2911L40.8068 46.4589C42.2809 44.9864 44.6701 44.9864 46.1442 46.4589L48.0711 48.3858C49.5452 49.8599 49.5452 52.2507 48.0711 53.7232L36.1819 65.6125C35.5375 66.2569 34.6635 66.6195 33.7515 66.6195H27.8203L27.9691 60.6345C27.9913 59.7541 28.3507 58.915 28.9746 58.2911Z" stroke="white" stroke-width="2" stroke-linecap="round" stroke-linejoin="round"/>
<path d="M39.0078 48.2871L46.2373 55.5166" stroke="white" stroke-width="2" stroke-linecap="round" stroke-linejoin="round"/>
</svg>
