<svg width="146" height="46" viewBox="0 0 146 46" fill="none" xmlns="http://www.w3.org/2000/svg">
<rect x="0.5" y="0.5" width="144.746" height="44.9322" rx="11.5" fill="white" stroke="#7D7D7D"/>
<path d="M76.6506 15.6816C75.6773 15.6816 74.8569 15.3354 74.208 14.6538C73.5645 13.9913 73.2052 13.078 73.2213 12.1456C73.2213 11.1505 73.5538 10.3081 74.208 9.64012C74.8542 8.95855 75.6747 8.6123 76.6479 8.6123C77.6105 8.6123 78.431 8.95855 79.0905 9.64012C79.7448 10.3299 80.0772 11.1723 80.0772 12.1456C80.0665 13.1434 79.734 13.9859 79.0905 14.6511C78.4444 15.3381 77.6239 15.6816 76.6506 15.6816ZM47.6907 15.6816C46.7389 15.6816 45.9131 15.3408 45.2374 14.6674C44.5671 13.9968 44.2266 13.1489 44.2266 12.1483C44.2266 11.1478 44.5671 10.2999 45.2374 9.62922C45.8996 8.95582 46.7255 8.61503 47.6907 8.61503C48.1626 8.61503 48.6211 8.71045 49.0608 8.90402C49.4925 9.09213 49.8437 9.34841 50.1038 9.66193L50.1682 9.741L49.4415 10.4662L49.3665 10.3762C48.9562 9.88004 48.4066 9.6374 47.68 9.6374C47.0311 9.6374 46.4654 9.87186 45.9989 10.3353C45.5296 10.8015 45.291 11.4122 45.291 12.151C45.291 12.8899 45.5296 13.5006 45.9989 13.9668C46.4654 14.4302 47.0311 14.6647 47.68 14.6647C48.3717 14.6647 48.9536 14.4302 49.4067 13.9668C49.6748 13.6941 49.841 13.3125 49.9 12.8299H47.57V11.8103H50.9001L50.9135 11.903C50.9377 12.0747 50.9618 12.2519 50.9618 12.4155C50.9618 13.3561 50.683 14.1167 50.1306 14.6783C49.5032 15.3436 48.6828 15.6816 47.6907 15.6816ZM86.1958 15.5371H85.1689L82.0238 10.4198L82.0506 11.3413V15.5344H81.0237V8.75953H82.1954L82.2276 8.81133L85.185 13.6314L85.1581 12.7127V8.75953H86.1958V15.5371V15.5371ZM68.9341 15.5371H67.8937V9.77916H66.0893V8.75953H70.7358V9.77916H68.9314V15.5371H68.9341ZM65.242 15.5371H64.2044V8.75953H65.242V15.5371ZM59.4103 15.5371H58.3727V9.77916H56.5682V8.75953H61.2148V9.77916H59.4103V15.5371ZM55.9113 15.5262H51.9324V8.75953H55.9113V9.77916H52.9727V11.6385H55.6244V12.6472H52.9727V14.5066H55.9113V15.5262ZM74.9695 13.9531C75.4333 14.4248 75.9964 14.662 76.6506 14.662C77.3236 14.662 77.8733 14.4302 78.3317 13.9531C78.7876 13.4897 79.0181 12.8817 79.0181 12.1483C79.0181 11.4149 78.7876 10.8043 78.3344 10.3435C77.8706 9.87186 77.3048 9.63467 76.6533 9.63467C75.9803 9.63467 75.4307 9.86641 74.9749 10.3435C74.519 10.807 74.2885 11.4149 74.2885 12.1483C74.2885 12.8817 74.5164 13.4924 74.9695 13.9531Z" fill="#212120"/>
<path fill-rule="evenodd" clip-rule="evenodd" d="M73.1255 25.0006C70.5918 25.0006 68.5379 26.9553 68.5379 29.6517C68.5379 32.3235 70.6052 34.3028 73.1255 34.3028C75.6593 34.3028 77.7131 32.3344 77.7131 29.6517C77.7131 26.9553 75.6593 25.0006 73.1255 25.0006ZM73.1255 32.4598C71.7393 32.4598 70.5462 31.2929 70.5462 29.6408C70.5462 27.9641 71.742 26.8217 73.1255 26.8217C74.5117 26.8217 75.7049 27.9641 75.7049 29.6408C75.7075 31.3038 74.5117 32.4598 73.1255 32.4598ZM63.1165 25.0006C60.5827 25.0006 58.5289 26.9553 58.5289 29.6517C58.5289 32.3235 60.5961 34.3028 63.1165 34.3028C65.6502 34.3028 67.7041 32.3344 67.7041 29.6517C67.7041 26.9553 65.6476 25.0006 63.1165 25.0006ZM63.1165 32.4598C61.7303 32.4598 60.5371 31.2929 60.5371 29.6408C60.5371 27.9641 61.733 26.8217 63.1165 26.8217C64.5027 26.8217 65.6958 27.9641 65.6958 29.6408C65.6958 31.3038 64.5027 32.4598 63.1165 32.4598ZM51.2065 26.421V28.3894H55.853C55.7109 29.4935 55.3516 30.3087 54.802 30.8676C54.121 31.5601 53.0699 32.3126 51.2172 32.3126C48.3617 32.3126 46.1282 29.9679 46.1282 27.0644C46.1282 24.1609 48.3617 21.8162 51.2172 21.8162C52.7589 21.8162 53.8823 22.4351 54.7162 23.2257L56.089 21.8299C54.9307 20.7012 53.389 19.8369 51.2279 19.8369C47.3106 19.8369 44.0234 23.0812 44.0234 27.0535C44.0234 31.0366 47.3079 34.2701 51.2279 34.2701C53.3434 34.2701 54.9307 33.5667 56.1855 32.2417C57.4644 30.9412 57.8693 29.1064 57.8693 27.626C57.8693 27.1653 57.8345 26.7509 57.7621 26.3992H51.2038C51.2065 26.3964 51.2065 26.421 51.2065 26.421ZM99.9217 27.9532C99.5383 26.909 98.38 24.9897 96.0045 24.9897C93.6503 24.9897 91.693 26.8735 91.693 29.6408C91.693 32.2526 93.6289 34.2919 96.2324 34.2919C98.3237 34.2919 99.541 32.9914 100.042 32.228L98.49 31.1702C97.9752 31.9472 97.2593 32.4571 96.2431 32.4571C95.2162 32.4571 94.4976 31.9827 94.0203 31.0475L100.136 28.4712C100.136 28.4739 99.9217 27.9532 99.9217 27.9532ZM93.6852 29.5072C93.6369 27.7105 95.058 26.7972 96.0742 26.7972C96.8759 26.7972 97.5435 27.198 97.7714 27.7814L93.6852 29.5072ZM88.7169 34.0138H90.7251V20.3495H88.7169V34.0138ZM85.419 26.0338H85.3466C84.8934 25.4858 84.0328 24.9897 82.9335 24.9897C80.6517 24.9897 78.5496 27.0317 78.5496 29.6544C78.5496 32.2662 80.641 34.2837 82.9335 34.2837C84.0194 34.2837 84.8934 33.7848 85.3466 33.2259H85.419V33.8938C85.419 35.6687 84.4859 36.6256 82.9817 36.6256C81.751 36.6256 80.9869 35.7259 80.6759 34.9734L78.9304 35.715C79.4318 36.9418 80.7697 38.4604 82.979 38.4604C85.3332 38.4604 87.328 37.0509 87.328 33.613V25.2677H85.4297V26.0338C85.4324 26.0338 85.419 26.0338 85.419 26.0338ZM83.1131 32.4598C81.7269 32.4598 80.5686 31.282 80.5686 29.6544C80.5686 28.0131 81.7269 26.8245 83.1131 26.8245C84.4859 26.8245 85.5503 28.0268 85.5503 29.6544C85.5637 31.282 84.4886 32.4598 83.1131 32.4598ZM109.325 20.3495H104.523V34.0138H106.531V28.8392H109.327C111.55 28.8392 113.735 27.2007 113.735 24.5998C113.735 21.9989 111.558 20.3495 109.325 20.3495ZM109.384 26.9308H106.528V22.2415H109.384C110.888 22.2415 111.738 23.5038 111.738 24.5862C111.738 25.6576 110.877 26.9308 109.384 26.9308ZM121.784 24.976C120.326 24.976 118.822 25.6331 118.2 27.0644L119.98 27.8169C120.363 27.0644 121.066 26.8081 121.809 26.8081C122.849 26.8081 123.9 27.4406 123.924 28.5693V28.7138C123.565 28.5066 122.777 28.1904 121.833 28.1904C119.91 28.1904 117.961 29.2591 117.961 31.2629C117.961 33.0977 119.538 34.2755 121.294 34.2755C122.642 34.2755 123.385 33.6566 123.849 32.9396H123.921V33.9974H125.857V28.7629C125.857 26.3256 124.077 24.976 121.784 24.976ZM121.532 32.4598C120.876 32.4598 119.956 32.1326 119.956 31.2929C119.956 30.2351 121.103 29.8343 122.082 29.8343C122.967 29.8343 123.385 30.0279 123.911 30.2951C123.766 31.5219 122.747 32.4489 121.532 32.4598ZM132.92 25.2677L130.614 31.1948H130.541L128.152 25.2677H125.991L129.576 33.553L127.533 38.1578H129.624L135.14 25.2677H132.92ZM114.843 34.0138H116.851V20.3495H114.843V34.0138Z" fill="#212120"/>
<path fill-rule="evenodd" clip-rule="evenodd" d="M11.0922 9.45252C10.7812 9.79331 10.6016 10.314 10.6016 10.9956V35.1698C10.6016 35.8514 10.7812 36.3721 11.103 36.6993L11.1861 36.7729L24.5064 23.2286V22.926L11.1753 9.37891L11.0922 9.45252Z" fill="url(#paint0_linear_3598_272)"/>
<path fill-rule="evenodd" clip-rule="evenodd" d="M28.935 27.7565L24.4922 23.239V22.9228L28.935 18.4053L29.0315 18.4653L34.2867 21.5024C35.7909 22.3639 35.7909 23.787 34.2867 24.6594L29.0315 27.6966L28.935 27.7565Z" fill="url(#paint1_linear_3598_272)"/>
<path fill-rule="evenodd" clip-rule="evenodd" d="M29.0365 27.6967L24.4972 23.0811L11.0938 36.7099C11.5844 37.2443 12.4076 37.3043 13.3272 36.7835L29.0365 27.6967Z" fill="url(#paint2_linear_3598_272)"/>
<path fill-rule="evenodd" clip-rule="evenodd" d="M29.0365 18.4654L13.3272 9.39223C12.4076 8.85787 11.5817 8.93148 11.0938 9.46584L24.4972 23.0811L29.0365 18.4654Z" fill="url(#paint3_linear_3598_272)"/>
<defs>
<linearGradient id="paint0_linear_3598_272" x1="23.3116" y1="10.7348" x2="1.92821" y2="16.3382" gradientUnits="userSpaceOnUse">
<stop stop-color="#00A0FF"/>
<stop offset="0.00657" stop-color="#00A1FF"/>
<stop offset="0.2601" stop-color="#00BEFF"/>
<stop offset="0.5122" stop-color="#00D2FF"/>
<stop offset="0.7604" stop-color="#00DFFF"/>
<stop offset="1" stop-color="#00E3FF"/>
</linearGradient>
<linearGradient id="paint1_linear_3598_272" x1="36.2483" y1="23.0809" x2="10.2325" y2="23.0809" gradientUnits="userSpaceOnUse">
<stop stop-color="#FFE000"/>
<stop offset="0.4087" stop-color="#FFBD00"/>
<stop offset="0.7754" stop-color="#FFA500"/>
<stop offset="1" stop-color="#FF9C00"/>
</linearGradient>
<linearGradient id="paint2_linear_3598_272" x1="26.5682" y1="25.5926" x2="9.01346" y2="54.6501" gradientUnits="userSpaceOnUse">
<stop stop-color="#FF3A44"/>
<stop offset="1" stop-color="#C31162"/>
</linearGradient>
<linearGradient id="paint3_linear_3598_272" x1="7.71861" y1="1.41146" x2="15.5506" y2="14.3892" gradientUnits="userSpaceOnUse">
<stop stop-color="#32A071"/>
<stop offset="0.0685" stop-color="#2DA771"/>
<stop offset="0.4762" stop-color="#15CF74"/>
<stop offset="0.8009" stop-color="#06E775"/>
<stop offset="1" stop-color="#00F076"/>
</linearGradient>
</defs>
</svg>
