<svg width="68" height="120" viewBox="0 0 68 120" fill="none" xmlns="http://www.w3.org/2000/svg">
<rect width="68" height="120" rx="24" fill="#F7F7F7"/>
<path d="M29.5015 73.8884V69.0328C29.5015 67.7976 30.5084 66.7941 31.7559 66.7859H36.3255C37.5789 66.7859 38.5951 67.7917 38.5951 69.0328V73.9034C38.5947 74.9521 39.4402 75.8091 40.499 75.8337H43.5455C46.5823 75.8337 49.0443 73.3964 49.0443 70.3898V56.5769C49.0281 55.3941 48.4671 54.2835 47.5211 53.561L37.1023 45.252C35.277 43.8053 32.6824 43.8053 30.8572 45.252L20.4842 53.576C19.5345 54.2956 18.9726 55.4081 18.9609 56.592V70.3898C18.9609 73.3964 21.4228 75.8337 24.4597 75.8337H27.5061C28.5913 75.8337 29.4711 74.9627 29.4711 73.8884" stroke="#0D0D0D" stroke-width="2" stroke-linecap="round" stroke-linejoin="round"/>
</svg>
