<svg width="223" height="223" viewBox="0 0 223 223" fill="none" xmlns="http://www.w3.org/2000/svg">
<g clip-path="url(#clip0_3537_9835)">
<path d="M139.794 92.3516H83.2157C66.3484 92.3516 52.6328 106.067 52.6328 122.93C52.6328 139.793 66.3484 153.517 83.2157 153.517H139.794C156.665 153.517 170.377 139.793 170.377 122.93C170.377 106.067 156.665 92.3516 139.794 92.3516ZM84.0779 131.12C79.5585 131.12 75.9013 127.462 75.9013 122.934C75.9013 118.411 79.5585 114.754 84.0779 114.754C88.6017 114.754 92.2631 118.415 92.2631 122.934C92.2673 127.462 88.6017 131.12 84.0779 131.12ZM138.919 131.12C134.408 131.12 130.734 127.462 130.734 122.934C130.734 118.411 134.408 114.754 138.919 114.754C143.455 114.754 147.113 118.415 147.113 122.934C147.113 127.462 143.455 131.12 138.919 131.12Z" fill="#E2E2E2"/>
<path d="M157.672 0H65.3284C29.2491 0 0 29.2491 0 65.3284V157.672C0 193.751 29.2491 223 65.3284 223H157.672C193.751 223 223 193.751 223 157.672V65.3284C223 29.2491 193.751 0 157.672 0ZM188.633 141.059C184.614 161.52 168.541 173.456 139.793 182.975C111.113 192.472 92.1181 197.68 92.1181 197.68V179.904H83.2278H83.2109C59.6281 179.904 39.7577 163.304 34.6563 141.221C28.2339 138.574 24.0118 132.963 24.0118 121.584C24.0118 109.835 28.578 104.215 35.4379 101.675C41.5672 81.0913 60.6985 65.9655 83.2109 65.9655H92.6745C96.2935 62.5504 102.223 60.1038 108.348 59.4624V43.5806C108.302 43.5636 108.268 43.5466 108.225 43.5296C104.653 42.1958 102.1 38.7638 102.1 34.7243C102.1 29.5294 106.314 25.3201 111.504 25.3201C116.699 25.3201 120.913 29.5337 120.913 34.7243C120.913 38.819 118.288 42.2978 114.635 43.5848V59.4539C120.773 60.0953 126.715 62.5377 130.342 65.9613H139.789C162.293 65.9613 181.429 81.0701 187.571 101.641C194.422 104.152 198.98 109.746 198.98 121.58C198.984 132.713 194.889 138.336 188.633 141.059Z" fill="#E2E2E2"/>
</g>
<defs>
<clipPath id="clip0_3537_9835">
<rect width="223" height="223" fill="white"/>
</clipPath>
</defs>
</svg>
